<?xml version="1.0" encoding="UTF-8" standalone="yes"?><svg xmlns="http://www.w3.org/2000/svg" xmlns:xlink="http://www.w3.org/1999/xlink" height="713px" style="width:127px;height:713px;" version="1.1" viewBox="0 0 127 713" width="127px"><defs><filter height="300%" id="f1" width="300%" x="-1" y="-1"><feGaussianBlur result="blurOut" stdDeviation="2.0"/><feColorMatrix in="blurOut" result="blurOut2" type="matrix" values="0 0 0 0 0 0 0 0 0 0 0 0 0 0 0 0 0 0 .4 0"/><feOffset dx="4.0" dy="4.0" in="blurOut2" result="blurOut3"/><feBlend in="SourceGraphic" in2="blurOut3" mode="normal"/></filter></defs><g><ellipse cx="34" cy="18" fill="#000000" filter="url(#f1)" rx="10" ry="10" style="stroke: none; stroke-width: 1.0;"/><rect fill="#FEFECE" filter="url(#f1)" height="50" rx="12.5" ry="12.5" style="stroke: #A80036; stroke-width: 1.5;" width="56" x="6" y="89"/><line style="stroke: #A80036; stroke-width: 1.5;" x1="6" x2="62" y1="113.7383" y2="113.7383"/><text fill="#000000" font-family="sans-serif" font-size="14" lengthAdjust="spacingAndGlyphs" textLength="14" x="27" y="106.6191">s1</text><text fill="#000000" font-family="sans-serif" font-size="12" lengthAdjust="spacingAndGlyphs" textLength="36" x="11" y="129.5547">未报价</text><rect fill="#FEFECE" filter="url(#f1)" height="50" rx="12.5" ry="12.5" style="stroke: #A80036; stroke-width: 1.5;" width="56" x="6" y="214"/><line style="stroke: #A80036; stroke-width: 1.5;" x1="6" x2="62" y1="238.7383" y2="238.7383"/><text fill="#000000" font-family="sans-serif" font-size="14" lengthAdjust="spacingAndGlyphs" textLength="14" x="27" y="231.6191">s2</text><text fill="#000000" font-family="sans-serif" font-size="12" lengthAdjust="spacingAndGlyphs" textLength="36" x="11" y="254.5547">已报价</text><rect fill="#FEFECE" filter="url(#f1)" height="50" rx="12.5" ry="12.5" style="stroke: #A80036; stroke-width: 1.5;" width="56" x="6" y="325"/><line style="stroke: #A80036; stroke-width: 1.5;" x1="6" x2="62" y1="349.7383" y2="349.7383"/><text fill="#000000" font-family="sans-serif" font-size="14" lengthAdjust="spacingAndGlyphs" textLength="14" x="27" y="342.6191">s3</text><text fill="#000000" font-family="sans-serif" font-size="12" lengthAdjust="spacingAndGlyphs" textLength="36" x="11" y="365.5547">新订单</text><rect fill="#FEFECE" filter="url(#f1)" height="50" rx="12.5" ry="12.5" style="stroke: #A80036; stroke-width: 1.5;" width="56" x="6" y="450"/><line style="stroke: #A80036; stroke-width: 1.5;" x1="6" x2="62" y1="474.7383" y2="474.7383"/><text fill="#000000" font-family="sans-serif" font-size="14" lengthAdjust="spacingAndGlyphs" textLength="14" x="27" y="467.6191">s4</text><text fill="#000000" font-family="sans-serif" font-size="12" lengthAdjust="spacingAndGlyphs" textLength="36" x="11" y="490.5547">新支付</text><rect fill="#FEFECE" filter="url(#f1)" height="50" rx="12.5" ry="12.5" style="stroke: #A80036; stroke-width: 1.5;" width="50" x="9" y="575"/><line style="stroke: #A80036; stroke-width: 1.5;" x1="9" x2="59" y1="599.7383" y2="599.7383"/><text fill="#000000" font-family="sans-serif" font-size="14" lengthAdjust="spacingAndGlyphs" textLength="14" x="27" y="592.6191">s5</text><text fill="#000000" font-family="sans-serif" font-size="12" lengthAdjust="spacingAndGlyphs" textLength="24" x="14" y="615.5547">结束</text><ellipse cx="34" cy="696" fill="none" filter="url(#f1)" rx="10" ry="10" style="stroke: #000000; stroke-width: 1.0;"/><ellipse cx="34.5" cy="696.5" fill="#000000" rx="6" ry="6" style="stroke: none; stroke-width: 1.0;"/><path d="M34,28.013 C34,40.698 34,64.409 34,83.57 " fill="none" style="stroke: #A80036; stroke-width: 1.0;"/><polygon fill="#A80036" points="34,88.84,38,79.84,34,83.84,30,79.84,34,88.84" style="stroke: #A80036; stroke-width: 1.0;"/><path d="M34,139.008 C34,158.858 34,187.136 34,208.39 " fill="none" style="stroke: #A80036; stroke-width: 1.0;"/><polygon fill="#A80036" points="34,213.633,38,204.633,34,208.633,30,204.633,34,213.633" style="stroke: #A80036; stroke-width: 1.0;"/><text fill="#000000" font-family="sans-serif" font-size="13" lengthAdjust="spacingAndGlyphs" textLength="78" x="35" y="181.7178">报价消息提醒</text><path d="M34,264.191 C34,280.56 34,302.279 34,319.64 " fill="none" style="stroke: #A80036; stroke-width: 1.0;"/><polygon fill="#A80036" points="34,324.877,38,315.877,34,319.877,30,315.877,34,324.877" style="stroke: #A80036; stroke-width: 1.0;"/><path d="M34,375.008 C34,394.858 34,423.136 34,444.39 " fill="none" style="stroke: #A80036; stroke-width: 1.0;"/><polygon fill="#A80036" points="34,449.633,38,440.633,34,444.633,30,440.633,34,449.633" style="stroke: #A80036; stroke-width: 1.0;"/><text fill="#000000" font-family="sans-serif" font-size="13" lengthAdjust="spacingAndGlyphs" textLength="91" x="35" y="417.7178">新订单消息提醒</text><path d="M34,500.008 C34,519.858 34,548.136 34,569.39 " fill="none" style="stroke: #A80036; stroke-width: 1.0;"/><polygon fill="#A80036" points="34,574.633,38,565.633,34,569.633,30,565.633,34,574.633" style="stroke: #A80036; stroke-width: 1.0;"/><text fill="#000000" font-family="sans-serif" font-size="13" lengthAdjust="spacingAndGlyphs" textLength="91" x="35" y="542.7178">新支付消息提醒</text><path d="M34,625.2073 C34,642.8423 34,666.1261 34,680.8351 " fill="none" style="stroke: #A80036; stroke-width: 1.0;"/><polygon fill="#A80036" points="34,685.8399,38,676.8399,34,680.8399,30,676.8399,34,685.8399" style="stroke: #A80036; stroke-width: 1.0;"/></g></svg>